<svg width="18" height="20" viewBox="0 0 18 20" fill="none" xmlns="http://www.w3.org/2000/svg">
<path d="M8.85387 13.1457C8.93772 13.2298 9.01598 13.3189 9.08828 13.4123C9.28514 13.6666 9.43782 13.9533 9.53899 14.2604L9.98677 15.6371C10.0242 15.7432 10.0937 15.8351 10.1856 15.9001C10.2776 15.9651 10.3874 16 10.5 16C10.6126 16 10.7224 15.9651 10.8144 15.9001C10.8964 15.8421 10.9605 15.7627 11 15.6709C11.0048 15.6598 11.0092 15.6486 11.0132 15.6371L11.461 14.2604C11.6003 13.8418 11.8353 13.4615 12.1474 13.1496C12.4595 12.8377 12.8402 12.6029 13.259 12.4637L14.6368 12.0163C14.743 11.9788 14.835 11.9094 14.9 11.8176C14.9651 11.7257 15 11.616 15 11.5034C15 11.3909 14.9651 11.2812 14.9 11.1893C14.835 11.0975 14.743 11.028 14.6368 10.9906L14.6093 10.9837L13.2315 10.5363C12.8126 10.3971 12.432 10.1623 12.1198 9.85041C11.8077 9.53853 11.5727 9.15819 11.4335 8.73963L10.9857 7.36289C10.9482 7.25678 10.8787 7.1649 10.7868 7.0999C10.6949 7.0349 10.5851 7 10.4724 7C10.3598 7 10.25 7.0349 10.1581 7.0999C10.0662 7.1649 9.99668 7.25678 9.95922 7.36289L9.51143 8.73963C9.37497 9.15525 9.14414 9.5337 8.837 9.84537C8.52987 10.1571 8.15475 10.3935 7.74097 10.5363L6.36317 10.9837C6.25698 11.0212 6.16502 11.0906 6.09998 11.1824C6.03493 11.2743 6 11.384 6 11.4966C6 11.6091 6.03493 11.7188 6.09998 11.8107C6.16502 11.9025 6.25698 11.972 6.36317 12.0094L7.74097 12.4568C8.16058 12.5967 8.54169 12.8326 8.85387 13.1457ZM11 4V6.09288C10.8319 6.03178 10.6534 6 10.4724 6C10.1531 6 9.84156 6.09898 9.58074 6.28339C9.31992 6.46782 9.12265 6.72863 9.01626 7.02998L9.01211 7.04174L8.56094 8.42888C8.47257 8.69739 8.32331 8.94196 8.12473 9.14348C7.92775 9.34337 7.68752 9.49554 7.42249 9.5883L6.04246 10.0365L6.03071 10.0406C5.72951 10.1468 5.46854 10.3438 5.28389 10.6045C5.09922 10.8653 5 11.1769 5 11.4966C5 11.8162 5.09922 12.1278 5.28389 12.3886C5.46854 12.6494 5.72951 12.8463 6.03071 12.9525L6.04246 12.9567L7.42806 13.4066C7.69235 13.4952 7.93289 13.6427 8.13156 13.8377C7.77276 13.9433 7.393 14 7 14C4.79086 14 3 12.2091 3 10V4C3 1.79086 4.79086 0 7 0C9.20914 0 11 1.79086 11 4ZM7.25 15.5C7.79454 15.5 8.31972 15.4171 8.81361 15.2632L9.03966 15.9583L9.04381 15.97C9.13291 16.2224 9.28574 16.4463 9.48625 16.6208C8.93685 16.8136 8.35496 16.9374 7.75098 16.9817L7.75 19.25C7.75 19.6642 7.41421 20 7 20C6.6203 20 6.30651 19.7178 6.25685 19.3518L6.25 19.25L6.25002 16.9818C2.83323 16.7316 0.122835 13.938 0.00406027 10.4863L0 10.25V9.75C0 9.33579 0.335786 9 0.75 9C1.1297 9 1.44349 9.28215 1.49315 9.64823L1.5 9.75V10.25C1.5 13.077 3.73445 15.3821 6.5336 15.4956L6.75 15.5H7.25ZM17.0175 16.9646L17.7829 17.2132L17.7982 17.217C17.8572 17.2378 17.9083 17.2764 17.9445 17.3274C17.9806 17.3784 18 17.4394 18 17.5019C18 17.5644 17.9806 17.6254 17.9445 17.6764C17.9083 17.7275 17.8572 17.766 17.7982 17.7868L17.0328 18.0354C16.8001 18.1127 16.5886 18.2432 16.4152 18.4164C16.2418 18.5897 16.1113 18.801 16.0339 19.0335L15.7851 19.7984C15.7643 19.8573 15.7257 19.9084 15.6746 19.9445C15.6236 19.9806 15.5626 20 15.5 20C15.4374 20 15.3764 19.9806 15.3254 19.9445C15.2743 19.9084 15.2357 19.8573 15.2149 19.7984L14.9661 19.0335C14.8893 18.8003 14.7589 18.5882 14.5855 18.4143C14.412 18.2403 14.2003 18.1093 13.9672 18.0316L13.2018 17.783C13.1428 17.7622 13.0917 17.7236 13.0555 17.6726C13.0194 17.6216 13 17.5606 13 17.4981C13 17.4356 13.0194 17.3746 13.0555 17.3236C13.0917 17.2725 13.1428 17.234 13.2018 17.2132L13.9672 16.9646C14.1971 16.8853 14.4055 16.7539 14.5761 16.5808C14.7467 16.4076 14.875 16.1974 14.9508 15.9665L15.1996 15.2016C15.2204 15.1427 15.259 15.0916 15.31 15.0555C15.3611 15.0194 15.4221 15 15.4847 15C15.5473 15 15.6083 15.0194 15.6593 15.0555C15.7104 15.0916 15.749 15.1427 15.7698 15.2016L16.0186 15.9665C16.0959 16.199 16.2265 16.4103 16.3999 16.5836C16.5733 16.7568 16.7848 16.8873 17.0175 16.9646Z" fill="#212121"/>
</svg>
