<svg width="26" height="26" viewBox="0 0 26 26" fill="none" xmlns="http://www.w3.org/2000/svg">
<path d="M17.29 11.7325H13.975L13.1517 14.2134H15.6325C16.5425 14.2134 17.29 14.9501 17.29 15.8709C17.29 16.7809 16.5533 17.5284 15.6325 17.5284H13.1517" stroke="#292D32" stroke-width="1.5" stroke-linecap="round" stroke-linejoin="round"/>
<path d="M10.335 17.5175V11.7325L8.70996 13.5417" stroke="#292D32" stroke-width="1.5" stroke-linecap="round" stroke-linejoin="round"/>
<path d="M10.855 4.84243L13 2.16663" stroke="#292D32" stroke-width="1.5" stroke-linecap="round" stroke-linejoin="round"/>
<path d="M5.31913 8.45001C4.11663 10.0533 3.36914 12.0358 3.36914 14.2025C3.36914 19.5217 7.68082 23.8334 13 23.8334C18.3192 23.8334 22.6308 19.5217 22.6308 14.2025C22.6308 8.88334 18.3192 4.57166 13 4.57166C12.2633 4.57166 11.5483 4.66921 10.855 4.83171" stroke="#292D32" stroke-width="1.5" stroke-linecap="round" stroke-linejoin="round"/>
</svg>
