<svg width="16" height="16" viewBox="0 0 16 16" fill="none" xmlns="http://www.w3.org/2000/svg">
<path d="M5.66671 12.6667H5.33337C2.66671 12.6667 1.33337 12 1.33337 8.66667V5.33333C1.33337 2.66667 2.66671 1.33333 5.33337 1.33333H10.6667C13.3334 1.33333 14.6667 2.66667 14.6667 5.33333V8.66667C14.6667 11.3333 13.3334 12.6667 10.6667 12.6667H10.3334C10.1267 12.6667 9.92671 12.7667 9.80004 12.9333L8.80004 14.2667C8.36004 14.8533 7.64004 14.8533 7.20004 14.2667L6.20004 12.9333C6.09337 12.7867 5.84671 12.6667 5.66671 12.6667Z" stroke="#292D32" stroke-width="1.5" stroke-miterlimit="10" stroke-linecap="round" stroke-linejoin="round"/>
<path d="M10.6643 7.33333H10.6703" stroke="#292D32" stroke-width="2" stroke-linecap="round" stroke-linejoin="round"/>
<path d="M7.99703 7.33333H8.00302" stroke="#292D32" stroke-width="2" stroke-linecap="round" stroke-linejoin="round"/>
<path d="M5.32967 7.33333H5.33566" stroke="#292D32" stroke-width="2" stroke-linecap="round" stroke-linejoin="round"/>
</svg>
