<svg width="16" height="15" viewBox="0 0 16 15" fill="none" xmlns="http://www.w3.org/2000/svg">
<path d="M8.41502 0C12.675 0 15.9 3.49274 15.9 7.48873C15.9 12.1232 12.12 15 8.40002 15C7.17002 15 5.80502 14.6695 4.71002 14.0235C4.32752 13.7907 4.00502 13.6179 3.59252 13.7531L2.07752 14.2038C1.69502 14.324 1.35002 14.0235 1.46252 13.6179L1.96502 11.9354C2.04752 11.7026 2.03252 11.4547 1.91252 11.2594C1.26752 10.0726 0.900024 8.77316 0.900024 7.51127C0.900024 3.56034 4.05752 0 8.41502 0ZM11.8425 6.55734C11.31 6.55734 10.8825 6.98548 10.8825 7.51878C10.8825 8.04457 11.31 8.48022 11.8425 8.48022C12.375 8.48022 12.8025 8.04457 12.8025 7.51878C12.8025 6.98548 12.375 6.55734 11.8425 6.55734ZM8.38502 6.55734C7.86002 6.54982 7.42502 6.98548 7.42502 7.51127C7.42502 8.04457 7.85252 8.47271 8.38502 8.48022C8.91752 8.48022 9.34502 8.04457 9.34502 7.51878C9.34502 6.98548 8.91752 6.55734 8.38502 6.55734ZM4.92752 6.55734C4.39502 6.55734 3.96752 6.98548 3.96752 7.51878C3.96752 8.04457 4.40252 8.48022 4.92752 8.48022C5.46002 8.47271 5.88752 8.04457 5.88752 7.51878C5.88752 6.98548 5.46002 6.55734 4.92752 6.55734Z" fill="black"/>
</svg>
