<svg width="15" height="15" viewBox="0 0 15 15" fill="none" xmlns="http://www.w3.org/2000/svg">
<path d="M14.7805 1.28016C15.0733 0.987176 15.0732 0.512302 14.7802 0.219502C14.4872 -0.0732985 14.0124 -0.073148 13.7196 0.219838L6.21956 7.72459L6 9L7.28055 8.78491L14.7805 1.28016ZM2.75 1C1.23122 1 0 2.23122 0 3.75V12.25C0 13.7688 1.23122 15 2.75 15H11.25C12.7688 15 14 13.7688 14 12.25V6.74755C14 6.33333 13.6642 5.99755 13.25 5.99755C12.8358 5.99755 12.5 6.33333 12.5 6.74755V12.25C12.5 12.9404 11.9404 13.5 11.25 13.5H2.75C2.05964 13.5 1.5 12.9404 1.5 12.25V3.75C1.5 3.05964 2.05964 2.5 2.75 2.5H8.24075C8.65497 2.5 8.99075 2.16421 8.99075 1.75C8.99075 1.33579 8.65497 1 8.24075 1H2.75Z" fill="#212121"/>
</svg>
