<svg width="18" height="18" viewBox="0 0 18 18" fill="none" xmlns="http://www.w3.org/2000/svg">
<path d="M15.9391 6.02742C16.1384 6.02742 16.3193 6.10572 16.4623 6.23802C16.5955 6.37932 16.6626 6.55481 16.6432 6.74021C16.6432 6.80141 16.1102 12.8674 15.8058 15.4206C15.6152 16.9875 14.4929 17.9388 12.8094 17.9649C11.5149 17.991 10.2496 18 9.00379 18C7.68112 18 6.38763 17.991 5.13206 17.9649C3.50498 17.9298 2.38168 16.9614 2.20079 15.4206C1.88763 12.8584 1.36439 6.80141 1.35467 6.74021C1.34494 6.55481 1.41108 6.37932 1.54529 6.23802C1.67756 6.10572 1.86818 6.02742 2.06852 6.02742H15.9391ZM11.0647 0C11.9488 0 12.7385 0.555295 12.967 1.34729L13.1304 2.00428C13.2627 2.53977 13.7781 2.91867 14.3714 2.91867H17.2871C17.6761 2.91867 18 3.20937 18 3.57926V3.92126C18 4.28216 17.6761 4.58185 17.2871 4.58185H0.713853C0.32386 4.58185 0 4.28216 0 3.92126V3.57926C0 3.20937 0.32386 2.91867 0.713853 2.91867H3.62957C4.22185 2.91867 4.7373 2.53977 4.87054 2.00518L5.02323 1.39139C5.26054 0.555294 6.0415 0 6.93527 0H11.0647Z" fill="black"/>
</svg>
