<svg width="26" height="26" viewBox="0 0 26 26" fill="none" xmlns="http://www.w3.org/2000/svg">
<path d="M17.29 11.7325H13.975L13.1517 14.2134H15.6325C16.5425 14.2134 17.29 14.9501 17.29 15.8709C17.29 16.7809 16.5533 17.5284 15.6325 17.5284H13.1517" stroke="#292D32" stroke-width="1.5" stroke-linecap="round" stroke-linejoin="round"/>
<path d="M10.335 17.5175V11.7325L8.70996 13.5417" stroke="#292D32" stroke-width="1.5" stroke-linecap="round" stroke-linejoin="round"/>
<path d="M15.145 4.84243L13 2.16663" stroke="#292D32" stroke-width="1.5" stroke-linecap="round" stroke-linejoin="round"/>
<path d="M20.6809 8.44988C21.8834 10.0532 22.6308 12.0357 22.6308 14.2024C22.6308 19.5215 18.3192 23.8332 13 23.8332C7.68082 23.8332 3.36914 19.5215 3.36914 14.2024C3.36914 8.88322 7.68082 4.57153 13 4.57153C13.7367 4.57153 14.4516 4.66909 15.145 4.83159" stroke="#292D32" stroke-width="1.5" stroke-linecap="round" stroke-linejoin="round"/>
</svg>
