<svg width="15" height="15" viewBox="0 0 15 15" fill="none" xmlns="http://www.w3.org/2000/svg">
<path d="M4.70173 0.500122C5.11815 0.514235 5.52023 0.590779 5.91052 0.73003L5.92405 0.743553L6.03477 0.780998C6.184 0.831462 6.30659 0.882232 6.41693 0.946111L6.43526 0.956725L6.45442 0.96575L6.71931 1.09049C6.74274 1.10497 6.77711 1.12935 6.82583 1.16625C6.8342 1.1726 6.84576 1.18142 6.85804 1.1908C6.87559 1.2042 6.89464 1.21874 6.90805 1.22883C6.93411 1.24845 6.96924 1.27446 7.00478 1.29728L7.00475 1.29733L7.01114 1.3013C7.02875 1.31224 7.04462 1.32203 7.05901 1.33091C7.12154 1.3695 7.15632 1.39096 7.18593 1.41486L7.49942 1.66785L7.81332 1.41536C8.56074 0.814137 9.46149 0.493236 10.3837 0.500108V0.500122H10.3874C10.8114 0.500122 11.2268 0.563207 11.6159 0.700646L11.6159 0.700669L11.6205 0.702256C14.0454 1.5321 15.02 4.38436 14.2378 7.01861C13.7879 8.3751 13.0547 9.61031 12.0984 10.6178C10.7008 12.0421 9.17001 13.309 7.52421 14.404C5.86848 13.315 4.32502 12.0456 2.91077 10.6102C1.96006 9.60158 1.22598 8.37315 0.768848 7.01637C-0.0254252 4.3863 0.945912 1.53197 3.40358 0.68535L3.4036 0.685414L3.41133 0.68261C3.58526 0.619477 3.764 0.574328 3.94299 0.547616H3.99747H4.03564L4.07337 0.541821C4.25788 0.513483 4.44171 0.500122 4.62746 0.500122H4.70173ZM11.5779 2.03063L11.5703 2.02759L11.5626 2.0248C10.9642 1.80819 10.3542 2.16077 10.1614 2.72902L10.1613 2.72899L10.1582 2.73873C9.97978 3.30224 10.2495 3.94841 10.8296 4.1684C11.1005 4.27679 11.3124 4.57717 11.3124 4.94148V4.94878C11.2945 5.24121 11.38 5.53208 11.5611 5.76351C11.7588 6.01629 12.0466 6.15314 12.3324 6.18186L12.3644 6.18507L12.3965 6.18416C12.9819 6.16763 13.4352 5.6859 13.4737 5.11736L13.4749 5.10049V5.08358V4.99449C13.4991 3.69844 12.7525 2.49991 11.5779 2.03063Z" fill="#EC1C24" stroke="black"/>
</svg>
