<svg width="25" height="25" viewBox="0 0 25 25" fill="none" xmlns="http://www.w3.org/2000/svg">
<path fill-rule="evenodd" clip-rule="evenodd" d="M17.9488 0C22.1663 0 25 2.96046 25 7.36628V17.6337C25 22.0395 22.1663 25 17.9488 25H7.05116C2.83372 25 0 22.0395 0 17.6337V7.36628C0 2.96046 2.83372 0 7.05116 0H17.9488ZM17.9488 1.74419H7.05116C3.82791 1.74419 1.74419 3.95 1.74419 7.36628V17.6337C1.74419 21.05 3.82791 23.2558 7.05116 23.2558H17.9488C21.1733 23.2558 23.2558 21.05 23.2558 17.6337V7.36628C23.2558 3.95 21.1733 1.74419 17.9488 1.74419ZM12.5 7.35733C12.9814 7.35733 13.3721 7.74802 13.3721 8.22942V11.6163L16.7634 11.6165C17.2448 11.6165 17.6355 12.0072 17.6355 12.4886C17.6355 12.97 17.2448 13.3607 16.7634 13.3607L13.3721 13.3605V16.7492C13.3721 17.2306 12.9814 17.6213 12.5 17.6213C12.0186 17.6213 11.6279 17.2306 11.6279 16.7492V13.3605L8.23663 13.3607C7.75407 13.3607 7.36453 12.97 7.36453 12.4886C7.36453 12.0072 7.75407 11.6165 8.23663 11.6165L11.6279 11.6163V8.22942C11.6279 7.74802 12.0186 7.35733 12.5 7.35733Z" fill="#006175"/>
</svg>
