<svg width="16" height="14" viewBox="0 0 16 14" fill="none" xmlns="http://www.w3.org/2000/svg">
<path d="M9.60556 0C10.36 0.00776915 10.9744 0.396226 11.3322 1.09545C11.4246 1.27997 11.5534 1.54946 11.6883 1.83375L11.8511 2.1775L11.9311 2.34628L12.0089 2.5172C12.04 2.57159 12.0944 2.61043 12.1644 2.61043C14.0311 2.61043 15.5556 4.13319 15.5556 5.99778V10.6127C15.5556 12.4772 14.0311 14 12.1644 14H3.39111C1.51667 14 0 12.4772 0 10.6127V5.99778C0 4.13319 1.51667 2.61043 3.39111 2.61043C3.45333 2.61043 3.51556 2.57936 3.53889 2.5172L3.58556 2.42397C3.80333 1.96559 4.06778 1.40622 4.22333 1.09545C4.58111 0.396226 5.18778 0.00776915 5.94222 0H9.60556ZM7.77778 4.98002C6.96111 4.98002 6.19111 5.29856 5.60778 5.88124C5.03222 6.46393 4.71333 7.22531 4.72111 8.0333C4.72111 8.84906 5.04 9.61043 5.61556 10.1931C6.19889 10.768 6.96111 11.0866 7.77778 11.0866C8.61778 11.0866 9.38 10.7447 9.93222 10.1931C10.4844 9.64151 10.8267 8.88013 10.8344 8.0333C10.8344 7.22531 10.5156 6.45616 9.94 5.87347C9.36444 5.29856 8.59444 4.98002 7.77778 4.98002ZM7.77778 6.14539C8.28333 6.14539 8.75778 6.33962 9.11556 6.697C9.47333 7.05438 9.66778 7.5283 9.66778 8.0333C9.66 9.07436 8.82 9.9212 7.77778 9.9212C7.27222 9.9212 6.79778 9.72697 6.44 9.36959C6.08222 9.01221 5.88778 8.53829 5.88778 8.0333V8.02553C5.88 7.53607 6.07444 7.06215 6.43222 6.70477C6.79778 6.33962 7.27222 6.14539 7.77778 6.14539ZM12.1411 4.79356C11.7522 4.79356 11.4411 5.1121 11.4411 5.50056C11.4411 5.88901 11.7522 6.19978 12.1411 6.19978C12.53 6.19978 12.8489 5.88901 12.8489 5.50056C12.8489 5.1121 12.53 4.79356 12.1411 4.79356Z" fill="black"/>
</svg>
