<svg width="18" height="24" viewBox="0 0 18 24" fill="none" xmlns="http://www.w3.org/2000/svg">
<path fill-rule="evenodd" clip-rule="evenodd" d="M7.12754 21.1949C7.63162 21.7745 8.27875 22.093 8.95021 22.093H8.95119C9.62556 22.093 10.2756 21.7745 10.7807 21.1939C11.0512 20.8854 11.5125 20.8603 11.8112 21.1386C12.1109 21.4169 12.1353 21.8941 11.8657 22.2025C11.0794 23.1037 10.045 23.6 8.95119 23.6H8.94924C7.85836 23.599 6.82587 23.1027 6.0425 22.2015C5.77295 21.8931 5.79727 21.4159 6.097 21.1386C6.39672 20.8593 6.85798 20.8844 7.12754 21.1949ZM8.99867 2C13.3242 2 16.23 5.4781 16.23 8.72614C16.23 10.3969 16.6416 11.1052 17.0786 11.8566C17.5106 12.5981 18.0001 13.44 18.0001 15.0313C17.6605 19.0972 13.549 19.4287 8.99867 19.4287C4.44832 19.4287 0.335878 19.0972 0.000134951 15.0956C-0.00277144 13.44 0.486713 12.5981 0.918782 11.8566L1.07131 11.5916C1.44687 10.9252 1.76735 10.2003 1.76735 8.72614C1.76735 5.4781 4.67311 2 8.99867 2ZM8.99867 3.50698C5.59759 3.50698 3.22704 6.25771 3.22704 8.72614C3.22704 10.8148 2.66555 11.7803 2.16925 12.6322C1.77124 13.3164 1.45692 13.8569 1.45692 15.0313C1.61944 16.9261 2.83098 17.9217 8.99867 17.9217C15.1323 17.9217 16.3818 16.8819 16.5433 14.966C16.5404 13.8569 16.2261 13.3164 15.8281 12.6322C15.3318 11.7803 14.7703 10.8148 14.7703 8.72614C14.7703 6.25771 12.3998 3.50698 8.99867 3.50698Z" fill="#006175"/>
<circle cx="14.5" cy="3.5" r="3.5" fill="#006175"/>
</svg>
