<svg width="25" height="25" viewBox="0 0 25 25" fill="none" xmlns="http://www.w3.org/2000/svg">
<g opacity="0.8">
<path fill-rule="evenodd" clip-rule="evenodd" d="M17.9169 0C19.9313 0 21.6689 0.672798 22.9404 1.94698C24.2696 3.27754 24.9987 5.21324 24.9962 7.39827L24.998 16.1639C25.0002 16.1976 25.0006 16.2315 24.9992 16.2652L24.9962 17.603C24.9962 22.0269 22.1487 25 17.9106 25H7.0793C2.845 25 0 22.0269 0 17.603V7.39701C0 2.97309 2.845 0 7.0793 0H17.9169ZM18.2634 13.5716C17.5268 13.5716 16.6624 14.7906 15.8969 15.8669C14.8471 17.3453 13.761 18.875 12.1249 18.875C11.0187 18.875 10.0052 18.4491 9.11202 18.0719C7.6914 17.4731 7.04748 17.2814 6.41735 17.8001C5.15595 18.8396 3.90957 20.7326 3.33686 21.6641C4.24079 22.5962 5.52484 23.1207 7.0793 23.1207H17.9106C21.0738 23.1207 23.117 20.9557 23.117 17.603L23.117 16.6019L23.0882 16.5715C21.9915 15.4415 20.0977 13.5716 18.2634 13.5716ZM17.9169 1.87932H7.0793C3.92111 1.87932 1.87913 4.04555 1.87913 7.39701V17.603C1.87913 18.4406 2.00659 19.2042 2.24709 19.8783C2.97204 18.7836 4.06692 17.3015 5.22348 16.3492C6.79192 15.0588 8.48063 15.7679 9.84112 16.3405C10.6416 16.6775 11.3983 16.9957 12.1249 16.9957C12.7914 16.9957 13.6269 15.818 14.3661 14.7794C15.3921 13.331 16.5571 11.6923 18.2634 11.6923C20.1359 11.6923 21.8319 12.8431 23.1184 13.9852L23.117 7.39701C23.1195 5.68934 22.5984 4.26356 21.6112 3.27503C20.6992 2.36168 19.4227 1.87932 17.9169 1.87932ZM8.59012 5.24895C10.3828 5.2502 11.841 6.70855 11.8423 8.50018V8.50143C11.8423 10.2943 10.3841 11.7527 8.59012 11.7527C6.79618 11.7527 5.33798 10.2943 5.33798 8.50143C5.33798 6.7073 6.79618 5.24895 8.59012 5.24895ZM8.58887 7.12827C7.83221 7.12827 7.21711 7.74344 7.21711 8.50143C7.21711 9.25817 7.83221 9.87333 8.59012 9.87333C9.34679 9.87333 9.96314 9.25817 9.96314 8.50268C9.96189 7.74469 9.34553 7.12952 8.58887 7.12827Z" fill="white"/>
</g>
</svg>
