<svg width="17" height="17" viewBox="0 0 17 17" fill="none" xmlns="http://www.w3.org/2000/svg">
<path d="M0.721126 0.0514945L16.0756 7.61746C16.3233 7.73952 16.4252 8.03927 16.3031 8.28697C16.2544 8.3858 16.1744 8.46578 16.0756 8.51448L0.721442 16.0803C0.473739 16.2023 0.173989 16.1005 0.0519328 15.8528C-0.00143915 15.7445 -0.0138112 15.6205 0.0171017 15.5038L1.53835 9.7591C1.58866 9.56912 1.7456 9.42622 1.93946 9.3939L8.82041 8.2466C8.9047 8.23255 8.97441 8.1769 9.00791 8.10125L9.02591 8.0411C9.04536 7.92436 8.98055 7.81305 8.87587 7.76934L8.82041 7.7534L1.90061 6.6001C1.70668 6.56778 1.54969 6.4248 1.49942 6.23473L0.016755 0.627888C-0.0538755 0.360932 0.105278 0.087263 0.372235 0.0166325C0.488927 -0.0142416 0.61285 -0.001859 0.721126 0.0514945Z" fill="#006175"/>
</svg>
