<svg width="25" height="25" viewBox="0 0 25 25" fill="none" xmlns="http://www.w3.org/2000/svg">
<g opacity="0.8">
<path d="M9.05 24H15.95C21.7 24 24 21.7 24 15.95V9.05C24 3.3 21.7 1 15.95 1H9.05C3.3 1 1 3.3 1 9.05V15.95C1 21.7 3.3 24 9.05 24Z" stroke="white" stroke-width="1.8" stroke-linecap="round" stroke-linejoin="round"/>
<path d="M14.2396 7.82292C13.7188 7.66667 13.1459 7.5625 12.5 7.5625C9.62502 7.5625 7.29169 9.89583 7.29169 12.7708C7.29169 15.6458 9.62502 17.9792 12.5 17.9792C15.375 17.9792 17.7084 15.6458 17.7084 12.7708C17.7084 11.6979 17.3854 10.7083 16.8334 9.875" stroke="white" stroke-width="1.5" stroke-linecap="round" stroke-linejoin="round"/>
<path d="M14.9792 7.96875L13.25 5.97916" stroke="white" stroke-width="1.5" stroke-linecap="round" stroke-linejoin="round"/>
<path d="M14.9792 7.96875L12.9584 9.44791" stroke="white" stroke-width="1.5" stroke-linecap="round" stroke-linejoin="round"/>
</g>
</svg>
