<svg width="60" height="85" viewBox="0 0 60 85" fill="none" xmlns="http://www.w3.org/2000/svg">
<path opacity="0.5" d="M60 55C60 71.5685 46.5685 85 30 85C13.4315 85 0 71.5685 0 55C0 38.4315 13.4315 25 30 25C46.5685 25 60 38.4315 60 55ZM3.81495 55C3.81495 69.4616 15.5384 81.1851 30 81.1851C44.4616 81.1851 56.1851 69.4616 56.1851 55C56.1851 40.5384 44.4616 28.8149 30 28.8149C15.5384 28.8149 3.81495 40.5384 3.81495 55Z" fill="black"/>
<g opacity="0.5">
<path d="M47.4756 12.2549C46.84 12.649 45.8454 12.6848 45.1445 12.3624L44.9437 12.2549L29.5 2.68028L14.0563 12.2549C13.4207 12.649 12.426 12.6848 11.7252 12.3624L11.5244 12.2549C10.8888 11.8608 10.831 11.2442 11.351 10.8096L11.5244 10.6851L28.2341 0.325113C28.8697 -0.0689611 29.8643 -0.104786 30.5651 0.217638L30.7659 0.325113L47.4756 10.6851C48.1748 11.1186 48.1748 11.8214 47.4756 12.2549Z" fill="black"/>
</g>
</svg>
