<svg width="25" height="25" viewBox="0 0 25 25" fill="none" xmlns="http://www.w3.org/2000/svg">
<g clip-path="url(#clip0_1156_1114)">
<path d="M17.7375 0H7.2625C2.7125 0 0 2.7125 0 7.2625V17.725C0 22.2875 2.7125 25 7.2625 25H17.725C22.275 25 24.9875 22.2875 24.9875 17.7375V7.2625C25 2.7125 22.2875 0 17.7375 0ZM5.9375 15.175C5.9375 15.6875 5.5125 16.1125 5 16.1125C4.4875 16.1125 4.0625 15.6875 4.0625 15.175V9.825C4.0625 9.3125 4.4875 8.8875 5 8.8875C5.5125 8.8875 5.9375 9.3125 5.9375 9.825V15.175ZM9.6875 16.9625C9.6875 17.475 9.2625 17.9 8.75 17.9C8.2375 17.9 7.8125 17.475 7.8125 16.9625V8.0375C7.8125 7.525 8.2375 7.1 8.75 7.1C9.2625 7.1 9.6875 7.525 9.6875 8.0375V16.9625ZM13.4375 18.75C13.4375 19.2625 13.0125 19.6875 12.5 19.6875C11.9875 19.6875 11.5625 19.2625 11.5625 18.75V6.25C11.5625 5.7375 11.9875 5.3125 12.5 5.3125C13.0125 5.3125 13.4375 5.7375 13.4375 6.25V18.75ZM17.1875 16.9625C17.1875 17.475 16.7625 17.9 16.25 17.9C15.7375 17.9 15.3125 17.475 15.3125 16.9625V8.0375C15.3125 7.525 15.7375 7.1 16.25 7.1C16.7625 7.1 17.1875 7.525 17.1875 8.0375V16.9625ZM20.9375 15.175C20.9375 15.6875 20.5125 16.1125 20 16.1125C19.4875 16.1125 19.0625 15.6875 19.0625 15.175V9.825C19.0625 9.3125 19.4875 8.8875 20 8.8875C20.5125 8.8875 20.9375 9.3125 20.9375 9.825V15.175Z" fill="#006175"/>
</g>
<defs>
<clipPath id="clip0_1156_1114">
<rect width="25" height="25" fill="white"/>
</clipPath>
</defs>
</svg>
